<svg width="200" height="60" viewBox="0 0 200 60" fill="none" xmlns="http://www.w3.org/2000/svg">
<path d="M68.0666 3.35162L46.2504 16.5384L29.5064 6.42855L28.1429 8.62635L44.0142 18.1868L24.5978 29.945L4.09057 17.5274L19.0892 8.46151L18.2166 7.14283L1.14539 17.4725V45.0549L24.2706 59.011L46.0868 45.8242L67.9029 59.011L91.3008 44.8901V17.3077L68.0666 3.35162ZM3.54517 20.2198L22.0889 31.4285L3.54517 42.6373V20.2198ZM23.0161 55.4945L3.98149 43.956L23.0161 32.4725V55.4945ZM69.2665 6.92305L88.3011 18.4066L69.2665 29.8901V6.92305ZM66.8667 6.92305V28.956L48.6502 17.967L66.8667 6.92305ZM25.4704 55.4945V33.4615L43.687 44.4505L25.4704 55.4945ZM25.9068 30.7143L45.3232 18.956L66.4304 31.7033L47.0139 43.4615L25.9068 30.7143ZM68.7756 56.6483L48.2684 44.2307L67.6848 32.4725L88.192 44.8351L68.7756 56.6483ZM70.1936 30.989L88.7374 19.7802L88.792 42.1978L70.1936 30.989Z" fill="black"/>
<path d="M27.0521 4.34064C27.0521 6.20878 25.525 7.74724 23.6706 7.74724C21.8163 7.74724 20.2891 6.20878 20.2891 4.34064C20.2891 2.47251 21.8163 0.934052 23.6706 0.934052C25.525 0.934052 27.0521 2.47251 27.0521 4.34064Z" fill="#E4211B"/>
<path d="M132.479 35C132.479 37.1978 131.497 38.8461 129.479 39.945C127.897 40.7692 125.879 41.2088 123.534 41.2088H105.318V18.9011H123.043C124.843 18.9011 126.261 19.011 127.298 19.2857C128.825 19.6703 130.079 20.3296 131.006 21.3186C131.988 22.3626 132.479 23.5714 132.479 25C132.479 26.3736 132.37 27.4175 132.152 28.0769C131.824 29.0659 131.115 29.7802 130.079 30.1648C130.897 30.3846 131.552 31.0439 131.988 32.1978C132.315 32.967 132.479 33.956 132.479 35ZM123.589 32.2527H110.226V36.978H123.262C125.989 36.978 127.407 36.4285 127.625 35.3846C127.679 35.1648 127.679 34.8901 127.679 34.5604C127.679 34.2307 127.679 33.956 127.625 33.7912C127.516 32.7472 126.152 32.2527 123.589 32.2527ZM127.57 26.4835V24.7252C127.57 23.6263 126.207 23.0219 123.425 23.0219H110.281V27.967H123.916C126.37 27.967 127.57 27.4725 127.57 26.4835Z" fill="black"/>
<path d="M164.003 35.2198C164.003 37.3077 163.022 38.9011 161.004 39.945C159.422 40.7692 157.513 41.1538 155.222 41.1538H146.496C144.041 41.1538 141.969 40.7692 140.333 40.0549C138.097 39.0659 136.951 37.4725 136.951 35.2747V24.6154C136.951 22.5275 138.097 20.989 140.387 19.945C142.078 19.1758 144.151 18.7912 146.496 18.7912H151.95V23.022H145.678C143.169 23.022 141.86 23.5714 141.86 24.6154V35.2747C141.86 36.3736 143.441 36.9231 146.55 36.9231H155.222C155.877 36.9231 156.64 36.8132 157.458 36.5384C158.549 36.2088 159.095 35.8242 159.095 35.3297V27.8571H164.003V35.2198Z" fill="black"/>
<path d="M198.637 41.3187H191.873L182.056 32.8571L172.239 41.3187H165.421L178.729 30.0549L165.421 18.5714H171.912L182.056 27.1978L192.146 18.5714H198.637L185.329 30.0549L198.637 41.3187Z" fill="black"/>
<path d="M157.458 30.6044C157.458 32.0879 156.259 33.2967 154.786 33.2967C153.313 33.2967 152.059 32.0879 152.059 30.6044C152.059 29.1209 153.259 27.9121 154.786 27.9121C156.204 27.8571 157.458 29.1209 157.458 30.6044Z" fill="#E4211B"/>
</svg>
